<svg id="Layer_1" data-name="Layer 1" xmlns="http://www.w3.org/2000/svg" viewBox="0 0 120 120"><defs><style>.cls-1,.cls-2{fill:#be1622;}.cls-2{opacity:0.05;}</style></defs><title>Artboard 1</title><path class="cls-1" d="M92.31,99.81,58.45,66a7.51,7.51,0,0,1-2.2-5.31V12.75a5,5,0,0,0-5.45-5A56.25,56.25,0,1,0,92,107.19,5,5,0,0,0,92.31,99.81Zm-5.34,5A51.26,51.26,0,1,1,49,13a2,2,0,0,1,2.3,2V61.68a10,10,0,0,0,2.93,7.07l33,33A2,2,0,0,1,87,104.79Z"/><path class="cls-1" d="M51.28,7.74a3.85,3.85,0,0,0-.48,0A56.25,56.25,0,0,0,54.39,120q.93,0,1.86,0A56.05,56.05,0,0,0,92,107.19a5,5,0,0,0,.32-7.38L58.45,66a7.51,7.51,0,0,1-2.2-5.31V12.75a5,5,0,0,0-5-5Zm5,107.26c-.86,0-1.71,0-2.57-.06A51.25,51.25,0,0,1,49,13l.3,0a2,2,0,0,1,2,2V61.68a10,10,0,0,0,2.93,7.07l33,33a2,2,0,0,1-.22,3A50.93,50.93,0,0,1,56.24,115Z"/><path class="cls-2" d="M87,104.79A51.26,51.26,0,1,1,49,13a2,2,0,0,1,2.3,2V61.68a10,10,0,0,0,2.93,7.07l33,33A2,2,0,0,1,87,104.79Z"/><path class="cls-1" d="M119.74,50.83A56.25,56.25,0,0,0,69.17.26a5,5,0,0,0-5.42,5v46a5,5,0,0,0,5,5h46A5,5,0,0,0,119.74,50.83Zm-7.24.42H70.75a2,2,0,0,1-2-2V7.5a2,2,0,0,1,2.3-2A51.36,51.36,0,0,1,114.48,49,2,2,0,0,1,112.5,51.25Z"/><path class="cls-1" d="M68.7.24a5,5,0,0,0-5,5v46a5,5,0,0,0,5,5h46a5,5,0,0,0,5-5.42A56.25,56.25,0,0,0,69.17.26a3.77,3.77,0,0,0-.47,0Zm2,51a2,2,0,0,1-2-2V7.5a2,2,0,0,1,2-2l.3,0A51.36,51.36,0,0,1,114.48,49a2,2,0,0,1-2,2.3Z"/><path class="cls-2" d="M112.5,51.25H70.75a2,2,0,0,1-2-2V7.5a2,2,0,0,1,2.3-2A51.36,51.36,0,0,1,114.48,49,2,2,0,0,1,112.5,51.25Z"/><path class="cls-1" d="M114.76,63.75h-45A2.5,2.5,0,0,0,68,68l31.8,31.8a4.92,4.92,0,0,0,7.44-.42,56,56,0,0,0,12.48-30.23A5,5,0,0,0,114.76,63.75Zm-.27,7.3a50.74,50.74,0,0,1-9.7,23.41,2,2,0,0,1-3,.23L77.52,70.45a1,1,0,0,1,.7-1.7H112.5A2,2,0,0,1,114.49,71.05Z"/><path class="cls-1" d="M114.76,63.75h-45A2.5,2.5,0,0,0,68,68l31.8,31.8a5,5,0,0,0,3.52,1.5,5.07,5.07,0,0,0,3.92-1.92,56,56,0,0,0,12.48-30.23,5,5,0,0,0-5-5.42ZM103.17,95.27a2,2,0,0,1-1.41-.58L77.52,70.45a1,1,0,0,1,.7-1.7H112.5a2,2,0,0,1,2,2.3,50.74,50.74,0,0,1-9.7,23.41,2,2,0,0,1-1.62.81Z"/><path class="cls-2" d="M114.49,71.05a50.74,50.74,0,0,1-9.7,23.41,2,2,0,0,1-3,.23L77.52,70.45a1,1,0,0,1,.7-1.7H112.5A2,2,0,0,1,114.49,71.05Z"/></svg>