<svg id="Layer_1" data-name="Layer 1" xmlns="http://www.w3.org/2000/svg" viewBox="0 0 120 120">
    <defs>
        <style>.cls-1,.cls-2{fill:#be1622;}.cls-2{opacity:0.05;}</style>
    </defs>
    <title>Artboard 5</title>
    <path class="cls-1"
          d="M110.06,79.07a26.32,26.32,0,0,0,7.1-23.48c-1.33-7.09-5.4-12.72-11.15-15.68a2,2,0,0,1-1-2,24.43,24.43,0,0,0-6-19.86,20.89,20.89,0,0,0-15.79-7.18,2,2,0,0,1-1.9-1.43A13,13,0,0,0,71.7.17,12.29,12.29,0,0,0,61.27,2.43a2.07,2.07,0,0,1-2.54,0A12.29,12.29,0,0,0,48.3.17a13,13,0,0,0-9.53,9.26,2,2,0,0,1-1.9,1.43A20.89,20.89,0,0,0,21.08,18,24.43,24.43,0,0,0,15,37.9a2,2,0,0,1-1,2c-5.75,3-9.82,8.59-11.15,15.68a26.32,26.32,0,0,0,7.1,23.48A2.08,2.08,0,0,1,10.5,81c-1.93,8.32.22,16.77,5.81,22.13A16.66,16.66,0,0,0,30,107.9a2,2,0,0,1,2.07,1.17A18.4,18.4,0,0,0,46.53,120a18.62,18.62,0,0,0,2.34.15,15.61,15.61,0,0,0,9.85-3.34,2,2,0,0,1,2.56,0,15.61,15.61,0,0,0,9.85,3.34,18.62,18.62,0,0,0,2.34-.15,18.4,18.4,0,0,0,14.45-10.94A2,2,0,0,1,90,107.9a16.66,16.66,0,0,0,13.7-4.76c5.59-5.36,7.74-13.81,5.81-22.13A2.08,2.08,0,0,1,110.06,79.07Zm-52.56-48a6.25,6.25,0,0,1-12.21,1.82A2.53,2.53,0,0,0,42.9,31h-.06a2.48,2.48,0,0,0-2.36,3.21,11.23,11.23,0,0,0,14.36,7.45c1.31-.44,2.66.5,2.66-1.12V106c0,4.42-.59,5.79-1.66,6.73a10.92,10.92,0,0,1-8.66,2.34c-4.48-.59-9.87-3.81-11.54-11.1l-.13-.57A2,2,0,0,0,32.83,102l-.54.21a11.43,11.43,0,0,1-12.51-2.64c-4-3.82-5.67-9.74-4.71-15.81a2,2,0,0,1,2.19-1.64,11.14,11.14,0,0,0,1.32.08,12.37,12.37,0,0,0,11.77-7.73,2.56,2.56,0,0,0-2.3-3.52,2.5,2.5,0,0,0-2.34,1.66c-.87,2.64-3.73,4.59-7.13,4.59C9.54,77,6.27,63.32,7.75,56.51,9,49.82,13.1,45,19,43.29l.5-.15a2,2,0,0,0,1.34-2.53l-.15-.48a19.33,19.33,0,0,1,4.13-18.74,15.87,15.87,0,0,1,15.3-5.18l.58.12a2,2,0,0,0,2.41-1.89l0-.6c.17-5.45,3.38-8.12,6.33-8.8a7.52,7.52,0,0,1,6.33,1.38,4.8,4.8,0,0,1,1.74,3.79ZM103.84,79.5l.12.35c2.55,7.33,1.09,15.06-3.74,19.69a11.43,11.43,0,0,1-12.51,2.64l-.54-.21a2,2,0,0,0-2.68,1.41l-.13.57c-1.67,7.29-7.06,10.51-11.54,11.1a10.89,10.89,0,0,1-8.66-2.34A5,5,0,0,1,62.5,109V92.23a6.25,6.25,0,0,1,12.21-1.81,2.54,2.54,0,0,0,2.39,1.85h.06a2.48,2.48,0,0,0,2.36-3.21,11.27,11.27,0,0,0-14.36-7.45c-1.31.45-2.66-.5-2.66-3.88V8.21c0,.54.6-.88,1.74-1.79A7.52,7.52,0,0,1,70.57,5c3,.68,6.16,3.35,6.33,8.8l0,.6a2,2,0,0,0,2.41,1.89l.58-.12a15.86,15.86,0,0,1,15.3,5.18A19.4,19.4,0,0,1,100,37.29,2,2,0,0,1,98.37,39a12.05,12.05,0,0,0-9.53,7.83A2.45,2.45,0,0,0,91.18,50a2.5,2.5,0,0,0,2.41-1.66c.86-2.64,3.73-4.59,7.12-4.59h0a7.24,7.24,0,0,1,3.47.85c4.15,2.31,7,6.49,8,11.9A21,21,0,0,1,104.8,77l-.29.22A2,2,0,0,0,103.84,79.5Z"/>
    <path class="cls-2"
          d="M40.48,34.23a11.23,11.23,0,0,0,14.36,7.45c1.31-.44,2.66.5,2.66-1.12V106c0,4.42-.59,5.79-1.66,6.73a10.92,10.92,0,0,1-8.66,2.34c-4.48-.59-9.87-3.81-11.54-11.1l-.13-.57A2,2,0,0,0,32.83,102l-.54.21a11.43,11.43,0,0,1-12.51-2.64c-4-3.82-5.67-9.74-4.71-15.81a2,2,0,0,1,2.19-1.64,11.14,11.14,0,0,0,1.32.08,12.37,12.37,0,0,0,11.77-7.73,2.56,2.56,0,0,0-2.3-3.52,2.5,2.5,0,0,0-2.34,1.66c-.87,2.64-3.73,4.59-7.13,4.59C9.54,77,6.27,63.32,7.75,56.51,9,49.82,13.1,45,19,43.29l.5-.15a2,2,0,0,0,1.34-2.53l-.15-.48a19.33,19.33,0,0,1,4.13-18.74,15.87,15.87,0,0,1,15.3-5.18l.58.12a2,2,0,0,0,2.41-1.89l0-.6c.17-5.45,3.38-8.12,6.33-8.8a7.52,7.52,0,0,1,6.33,1.38,4.8,4.8,0,0,1,1.74,3.79V31.06a6.25,6.25,0,0,1-12.21,1.82A2.53,2.53,0,0,0,42.9,31h-.06A2.48,2.48,0,0,0,40.48,34.23Z"/>
    <path class="cls-2"
          d="M104.51,77.26a2,2,0,0,0-.67,2.24l.12.35c2.55,7.33,1.09,15.06-3.74,19.69a11.43,11.43,0,0,1-12.51,2.64l-.54-.21a2,2,0,0,0-2.68,1.41l-.13.57c-1.67,7.29-7.06,10.51-11.54,11.1a10.89,10.89,0,0,1-8.66-2.34A5,5,0,0,1,62.5,109V92.23a6.25,6.25,0,0,1,12.21-1.81,2.54,2.54,0,0,0,2.39,1.85h.06a2.48,2.48,0,0,0,2.36-3.21,11.27,11.27,0,0,0-14.36-7.45c-1.31.45-2.66-.5-2.66-3.88V8.21c0,.54.6-.88,1.74-1.79A7.52,7.52,0,0,1,70.57,5c3,.68,6.16,3.35,6.33,8.8l0,.6a2,2,0,0,0,2.41,1.89l.58-.12a15.86,15.86,0,0,1,15.3,5.18A19.4,19.4,0,0,1,100,37.29,2,2,0,0,1,98.37,39a12.05,12.05,0,0,0-9.53,7.83A2.45,2.45,0,0,0,91.18,50a2.5,2.5,0,0,0,2.41-1.66c.86-2.64,3.73-4.59,7.12-4.59h0a7.24,7.24,0,0,1,3.47.85c4.15,2.31,7,6.49,8,11.9A21,21,0,0,1,104.8,77Z"/>
</svg>