<svg id="Layer_1" data-name="Layer 1" xmlns="http://www.w3.org/2000/svg" viewBox="0 0 120 120"><defs><style>.cls-1,.cls-2{fill:#be1622;}.cls-2{opacity:0.05;}</style></defs><title>Artboard 5 copy</title><path class="cls-1" d="M113,10H7a5,5,0,0,0-5,5V35a5,5,0,0,0,5,5H8a2,2,0,0,1,2,2v63a5,5,0,0,0,5,5h90a5,5,0,0,0,5-5V42a2,2,0,0,1,2-2h1a5,5,0,0,0,5-5V15A5,5,0,0,0,113,10Zm-8,93a2,2,0,0,1-2,2H17a2,2,0,0,1-2-2V42a2,2,0,0,1,1.94-2h86.12A2,2,0,0,1,105,42Zm8-70a2,2,0,0,1-2,2H9a2,2,0,0,1-2-2V17a2,2,0,0,1,2-2H111a2,2,0,0,1,2,2Z"/><path class="cls-2" d="M103.06,40H16.94A2,2,0,0,0,15,42v61a2,2,0,0,0,2,2h86a2,2,0,0,0,2-2V42A2,2,0,0,0,103.06,40ZM71.77,54.28A2.5,2.5,0,0,1,70,55H50a2.5,2.5,0,1,1,0-5H70a2.5,2.5,0,0,1,1.77,4.27Z"/><path class="cls-2" d="M113,17V33a2,2,0,0,1-2,2H9a2,2,0,0,1-2-2V17a2,2,0,0,1,2-2H111A2,2,0,0,1,113,17Z"/><path class="cls-1" d="M72.5,52.51A2.49,2.49,0,0,1,70,55H50a2.5,2.5,0,1,1,0-5H70A2.5,2.5,0,0,1,72.5,52.51Z"/></svg>